<svg width="1241" height="863" viewBox="0 0 1241 863" fill="none" xmlns="http://www.w3.org/2000/svg">
<rect x="148" y="141" width="892" height="551" stroke="black" stroke-width="20"/>
<circle cx="1036.5" cy="138.5" r="32.5" fill="#BF2EF0" stroke="black" stroke-width="10"/>
<circle cx="1036.5" cy="683.5" r="32.5" fill="#BF2EF0" stroke="black" stroke-width="10"/>
<circle cx="149.5" cy="683.5" r="32.5" fill="#BF2EF0" stroke="black" stroke-width="10"/>
<circle cx="149.5" cy="138.5" r="32.5" fill="#BF2EF0" stroke="black" stroke-width="10"/>
<line x1="660.061" y1="689.231" x2="571.061" y2="639.231" stroke="black" stroke-width="12"/>
<line y1="-6" x2="102.083" y2="-6" transform="matrix(-0.871837 0.489796 0.489796 0.871837 663 694)" stroke="black" stroke-width="12"/>
<line x1="1041.73" y1="334.439" x2="991.731" y2="423.439" stroke="black" stroke-width="12"/>
<line y1="-6" x2="102.083" y2="-6" transform="matrix(0.489796 0.871837 0.871837 -0.489796 1046.5 331.5)" stroke="black" stroke-width="12"/>
<line x1="149.731" y1="334.439" x2="99.731" y2="423.439" stroke="black" stroke-width="12"/>
<line y1="-6" x2="102.083" y2="-6" transform="matrix(0.489796 0.871837 0.871837 -0.489796 154.5 331.5)" stroke="black" stroke-width="12"/>
<line x1="652.061" y1="139.231" x2="563.061" y2="89.231" stroke="black" stroke-width="12"/>
<line y1="-6" x2="102.083" y2="-6" transform="matrix(-0.871837 0.489796 0.489796 0.871837 655 144)" stroke="black" stroke-width="12"/>
</svg>
